<svg width="156" height="155" viewBox="0 0 156 155" fill="none" xmlns="http://www.w3.org/2000/svg">
<path d="M77.0163 1.37877C77.2163 0.285304 78.7837 0.285298 78.9837 1.37877L86.9963 45.1913C87.144 45.9994 88.149 46.2945 88.7102 45.6946L119.138 13.169C119.897 12.3573 121.216 13.2047 120.793 14.2327L103.846 55.4221C103.534 56.1817 104.22 56.9733 105.016 56.7721L148.198 45.8602C149.276 45.5878 149.927 47.0136 149.015 47.6498L112.491 73.1387C111.817 73.6087 111.966 74.6455 112.745 74.9068L154.971 89.073C156.025 89.4265 155.802 90.978 154.691 91.0203L110.184 92.7162C109.363 92.7474 108.928 93.7002 109.442 94.341L137.306 129.088C138.002 129.955 136.975 131.139 136.018 130.575L97.6596 107.939C96.9521 107.521 96.071 108.088 96.1569 108.905L100.812 153.2C100.928 154.305 99.4245 154.747 98.9246 153.754L78.8932 113.974C78.5237 113.24 77.4763 113.24 77.1068 113.974L57.0754 153.754C56.5755 154.747 55.0715 154.305 55.1877 153.2L59.8431 108.905C59.929 108.088 59.0479 107.521 58.3404 107.939L19.982 130.575C19.0246 131.139 17.9982 129.955 18.6936 129.088L46.5578 94.341C47.0717 93.7002 46.6366 92.7474 45.8158 92.7162L1.30884 91.0203C0.198038 90.978 -0.0250344 89.4265 1.02884 89.073L43.2552 74.9068C44.0339 74.6455 44.183 73.6087 43.5094 73.1387L6.98461 47.6498C6.07303 47.0136 6.72415 45.5878 7.80188 45.8602L50.9837 56.7721C51.7801 56.9733 52.4661 56.1817 52.1535 55.4221L35.2073 14.2327C34.7843 13.2047 36.1029 12.3573 36.8623 13.169L67.2898 45.6946C67.851 46.2945 68.856 45.9994 69.0037 45.1913L77.0163 1.37877Z" fill="#FFAD56"/>
</svg>
